name analog
datacolumns 19
datarows 51
range 0.34550000000000003 0.3705
endheader
time	ground_force_vx	ground_force_vy	ground_force_vz	ground_force_px	ground_force_py	ground_force_pz	l_ground_force_vx	l_ground_force_vy	l_ground_force_vz	l_ground_force_px	l_ground_force_py	l_ground_force_pz	ground_torque_x	ground_torque_y	ground_torque_z	l_ground_torque_x	l_ground_torque_y	l_ground_torque_z
0.34550000000000003	-0.0	-0.0	-0.0	-0.0	-0.0	-0.0	-1.7536145448684692	-3.3823556900024414	-502.6553955078125	-0.0	-0.0	-0.0	-0.0	-0.0	-0.0	164597.140625	-21588.880859375	-1371.8739013671875
0.34600000000000003	-0.0	-0.0	-0.0	-0.0	-0.0	-0.0	-2.588151693344116	-2.784384489059448	-502.0366821289063	-0.0	-0.0	-0.0	-0.0	-0.0	-0.0	164500.96875	-21518.939453125	-1461.2818603515625
0.34650000000000003	-0.0	-0.0	-0.0	-0.0	-0.0	-0.0	-2.79648756980896	-2.7800445556640625	-501.7918395996094	-0.0	-0.0	-0.0	-0.0	-0.0	-0.0	164488.796875	-21510.287109375	-1445.8773193359375
0.34700000000000003	-0.0	-0.0	-0.0	-0.0	-0.0	-0.0	-2.4954638481140137	-2.461495876312256	-501.154052734375	-0.0	-0.0	-0.0	-0.0	-0.0	-0.0	164840.8125	-21377.6015625	-1114.15478515625
0.34750000000000003	-0.0	-0.0	-0.0	-0.0	-0.0	-0.0	-1.9328796863555908	-2.603794813156128	-502.657470703125	-0.0	-0.0	-0.0	-0.0	-0.0	-0.0	165070.78125	-21212.068359375	-852.025634765625
0.34800000000000003	-0.0	-0.0	-0.0	-0.0	-0.0	-0.0	-1.5662171840667725	-2.51867151260376	-502.3690185546875	-0.0	-0.0	-0.0	-0.0	-0.0	-0.0	165407.421875	-21334.328125	-747.4570922851562
0.34850000000000003	-0.0	-0.0	-0.0	-0.0	-0.0	-0.0	-0.9480426907539368	-2.5461618900299072	-504.2348937988281	-0.0	-0.0	-0.0	-0.0	-0.0	-0.0	165883.703125	-21496.255859375	-579.3197021484375
0.34900000000000003	-0.0	-0.0	-0.0	-0.0	-0.0	-0.0	-0.4132407605648041	-2.266183614730835	-504.8135681152344	-0.0	-0.0	-0.0	-0.0	-0.0	-0.0	166528.75	-21311.947265625	-406.0296020507813
0.34950000000000003	-0.0	-0.0	-0.0	-0.0	-0.0	-0.0	0.1339877098798751	-1.5164947509765625	-505.6903381347656	-0.0	-0.0	-0.0	-0.0	-0.0	-0.0	166928.890625	-21697.314453125	-153.04052734375
0.35000000000000003	-0.0	-0.0	-0.0	-0.0	-0.0	-0.0	0.8134122490882874	-1.7514843940734863	-507.2582092285156	-0.0	-0.0	-0.0	-0.0	-0.0	-0.0	167547.03125	-21437.615234375	232.4250030517578
0.35050000000000003	-0.0	-0.0	-0.0	-0.0	-0.0	-0.0	1.5818333625793457	-2.251678466796875	-505.9795837402344	-0.0	-0.0	-0.0	-0.0	-0.0	-0.0	168223.59375	-21918.19921875	465.1722412109375
0.35100000000000003	-0.0	-0.0	-0.0	-0.0	-0.0	-0.0	2.2177696228027344	-2.384685516357422	-506.5603332519531	-0.0	-0.0	-0.0	-0.0	-0.0	-0.0	168208.96875	-21892.771484375	510.48736572265625
0.35150000000000003	-0.0	-0.0	-0.0	-0.0	-0.0	-0.0	2.572612762451172	-2.399449348449707	-507.6080932617188	-0.0	-0.0	-0.0	-0.0	-0.0	-0.0	169002.359375	-21688.916015625	639.041015625
0.352	-0.0	-0.0	-0.0	-0.0	-0.0	-0.0	2.3507747650146484	-2.1933419704437256	-509.3541259765625	-0.0	-0.0	-0.0	-0.0	-0.0	-0.0	169223.375	-22039.96484375	633.9340209960938
0.3525	-0.0	-0.0	-0.0	-0.0	-0.0	-0.0	2.528481960296631	-1.7078505754470823	-508.7718200683594	-0.0	-0.0	-0.0	-0.0	-0.0	-0.0	169713.640625	-22010.923828125	579.7382202148438
0.353	-0.0	-0.0	-0.0	-0.0	-0.0	-0.0	1.9799917936325075	-1.5752214193344116	-509.5885620117188	-0.0	-0.0	-0.0	-0.0	-0.0	-0.0	170190.515625	-22051.236328125	411.4114379882813
0.3535	-0.0	-0.0	-0.0	-0.0	-0.0	-0.0	2.099920749664306	-1.0440640449523926	-510.1729431152344	-0.0	-0.0	-0.0	-0.0	-0.0	-0.0	170645.328125	-21811.12890625	411.653076171875
0.354	-0.0	-0.0	-0.0	-0.0	-0.0	-0.0	1.995112895965576	-0.8543602228164673	-511.39306640625	-0.0	-0.0	-0.0	-0.0	-0.0	-0.0	170944.046875	-21767.892578125	322.072021484375
0.3545	-0.0	-0.0	-0.0	-0.0	-0.0	-0.0	2.201245784759521	-0.7805210947990417	-509.4690551757813	-0.0	-0.0	-0.0	-0.0	-0.0	-0.0	171159.640625	-21758.28125	372.5166320800781
0.355	-0.0	-0.0	-0.0	-0.0	-0.0	-0.0	1.376223921775818	-1.1028196811676023	-509.83697509765625	-0.0	-0.0	-0.0	-0.0	-0.0	-0.0	171133.234375	-21357.4375	84.88127899169922
0.3555	-0.0	-0.0	-0.0	-0.0	-0.0	-0.0	0.6066697239875793	-0.9117028713226318	-509.1756591796875	-0.0	-0.0	-0.0	-0.0	-0.0	-0.0	170966.796875	-21165.681640625	-270.598388671875
0.356	-0.0	-0.0	-0.0	-0.0	-0.0	-0.0	-0.0744694173336029	-0.5866457223892212	-507.8345947265625	-0.0	-0.0	-0.0	-0.0	-0.0	-0.0	171454.65625	-21100.7890625	-468.9734191894531
0.3565	-0.0	-0.0	-0.0	-0.0	-0.0	-0.0	-0.0603369250893592	-0.710146963596344	-509.118896484375	-0.0	-0.0	-0.0	-0.0	-0.0	-0.0	171979.9375	-20902.103515625	-780.976318359375
0.357	-0.0	-0.0	-0.0	-0.0	-0.0	-0.0	0.2802421450614929	0.4416084289550781	-509.2851867675781	-0.0	-0.0	-0.0	-0.0	-0.0	-0.0	172368.0	-20787.89453125	-834.9998779296875
0.3575	-0.0	-0.0	-0.0	-0.0	-0.0	-0.0	0.7518519759178162	1.16653573513031	-510.0552062988281	-0.0	-0.0	-0.0	-0.0	-0.0	-0.0	172835.703125	-20770.875	-928.1541137695312
0.358	-0.0	-0.0	-0.0	-0.0	-0.0	-0.0	1.3306617736816406	2.022302865982056	-510.0555114746094	-0.0	-0.0	-0.0	-0.0	-0.0	-0.0	173271.46875	-20791.048828125	-1038.4005126953125
0.3585	-0.0	-0.0	-0.0	-0.0	-0.0	-0.0	1.3584892749786377	2.0036933422088623	-512.28076171875	-0.0	-0.0	-0.0	-0.0	-0.0	-0.0	174097.390625	-20669.46875	-1080.38818359375
0.359	-0.0	-0.0	-0.0	-0.0	-0.0	-0.0	1.139380931854248	2.119720458984375	-510.9724731445313	-0.0	-0.0	-0.0	-0.0	-0.0	-0.0	174799.671875	-20427.4453125	-1399.35302734375
0.3595	-0.0	-0.0	-0.0	-0.0	-0.0	-0.0	0.85954350233078	2.351250648498535	-511.4291687011719	-0.0	-0.0	-0.0	-0.0	-0.0	-0.0	175204.15625	-20173.80859375	-1605.2581787109375
0.36	-0.0	-0.0	-0.0	-0.0	-0.0	-0.0	0.0137178320437669	1.7327426671981812	-510.218505859375	-0.0	-0.0	-0.0	-0.0	-0.0	-0.0	175583.4375	-19862.900390625	-2114.87109375
0.3605	-0.0	-0.0	-0.0	-0.0	-0.0	-0.0	-1.2146254777908323	2.2963638305664062	-510.513427734375	-0.0	-0.0	-0.0	-0.0	-0.0	-0.0	175933.09375	-19546.078125	-2261.6328125
0.361	-0.0	-0.0	-0.0	-0.0	-0.0	-0.0	-1.3306617736816406	3.064206838607788	-510.8339538574219	-0.0	-0.0	-0.0	-0.0	-0.0	-0.0	176053.453125	-19413.708984375	-2733.802490234375
0.3615	-0.0	-0.0	-0.0	-0.0	-0.0	-0.0	-1.699026346206665	3.166118621826172	-512.2586669921875	-0.0	-0.0	-0.0	-0.0	-0.0	-0.0	176703.40625	-19567.876953125	-2827.530517578125
0.362	-0.0	-0.0	-0.0	-0.0	-0.0	-0.0	-2.26614761352539	3.131414890289306	-512.1737670898438	-0.0	-0.0	-0.0	-0.0	-0.0	-0.0	177015.0625	-19214.962890625	-3076.88525390625
0.3625	-0.0	-0.0	-0.0	-0.0	-0.0	-0.0	-2.8169829845428467	3.152918815612793	-511.961669921875	-0.0	-0.0	-0.0	-0.0	-0.0	-0.0	177531.765625	-18914.14453125	-3449.50830078125
0.363	-0.0	-0.0	-0.0	-0.0	-0.0	-0.0	-4.400168895721436	3.2280726432800293	-511.9612426757813	-0.0	-0.0	-0.0	-0.0	-0.0	-0.0	177903.78125	-18545.125	-3874.92138671875
0.3635	-0.0	-0.0	-0.0	-0.0	-0.0	-0.0	-5.996654510498047	3.811032295227051	-511.908447265625	-0.0	-0.0	-0.0	-0.0	-0.0	-0.0	178135.578125	-18267.048828125	-4182.8623046875
0.364	-0.0	-0.0	-0.0	-0.0	-0.0	-0.0	-6.453145503997803	4.994928359985352	-512.0120239257812	-0.0	-0.0	-0.0	-0.0	-0.0	-0.0	178703.59375	-18059.69921875	-4613.263671875
0.3645	-0.0	-0.0	-0.0	-0.0	-0.0	-0.0	-7.300562858581543	5.780154228210449	-513.3563232421875	-0.0	-0.0	-0.0	-0.0	-0.0	-0.0	179225.8125	-17765.908203125	-4682.94677734375
0.365	-0.0	-0.0	-0.0	-0.0	-0.0	-0.0	-7.806549072265625	6.712448120117188	-513.5506591796875	-0.0	-0.0	-0.0	-0.0	-0.0	-0.0	179721.921875	-17636.55078125	-4809.42138671875
0.3655	-0.0	-0.0	-0.0	-0.0	-0.0	-0.0	-7.717838287353516	7.483726024627685	-514.30029296875	-0.0	-0.0	-0.0	-0.0	-0.0	-0.0	180198.140625	-17540.6796875	-4804.81640625
0.366	-0.0	-0.0	-0.0	-0.0	-0.0	-0.0	-8.059761047363281	8.68298053741455	-516.8461303710938	-0.0	-0.0	-0.0	-0.0	-0.0	-0.0	181075.6875	-17856.984375	-4673.74267578125
0.3665	-0.0	-0.0	-0.0	-0.0	-0.0	-0.0	-7.7307047843933105	9.87921905517578	-517.837158203125	-0.0	-0.0	-0.0	-0.0	-0.0	-0.0	181576.796875	-17623.72265625	-4630.5791015625
0.367	-0.0	-0.0	-0.0	-0.0	-0.0	-0.0	-7.135297775268555	10.636868476867676	-517.1439208984375	-0.0	-0.0	-0.0	-0.0	-0.0	-0.0	181713.34375	-17938.517578125	-4426.5986328125
0.3675	-0.0	-0.0	-0.0	-0.0	-0.0	-0.0	-7.084128379821777	11.128532409667969	-519.2368774414062	-0.0	-0.0	-0.0	-0.0	-0.0	-0.0	182272.390625	-17686.453125	-4328.9033203125
0.368	-0.0	-0.0	-0.0	-0.0	-0.0	-0.0	-7.299624919891357	11.734169006347656	-516.94384765625	-0.0	-0.0	-0.0	-0.0	-0.0	-0.0	182388.265625	-17740.619140625	-4112.7958984375
0.3685	-0.0	-0.0	-0.0	-0.0	-0.0	-0.0	-7.287301063537598	11.885746955871582	-518.7896728515625	-0.0	-0.0	-0.0	-0.0	-0.0	-0.0	182578.9375	-17822.650390625	-4108.45703125
0.369	-0.0	-0.0	-0.0	-0.0	-0.0	-0.0	-6.855807781219482	12.276714324951172	-520.8355102539062	-0.0	-0.0	-0.0	-0.0	-0.0	-0.0	183115.21875	-17698.47265625	-3857.76806640625
0.3695	-0.0	-0.0	-0.0	-0.0	-0.0	-0.0	-6.500836372375488	12.516839981079102	-521.2342529296875	-0.0	-0.0	-0.0	-0.0	-0.0	-0.0	183327.953125	-17795.087890625	-4014.89697265625
0.37	-0.0	-0.0	-0.0	-0.0	-0.0	-0.0	-6.958562850952148	12.70598030090332	-520.43115234375	-0.0	-0.0	-0.0	-0.0	-0.0	-0.0	183846.171875	-17629.828125	-3938.1025390625
0.3705	-0.0	-0.0	-0.0	-0.0	-0.0	-0.0	-6.803733348846436	12.76977825164795	-520.6822509765625	-0.0	-0.0	-0.0	-0.0	-0.0	-0.0	183984.0625	-17370.8828125	-3951.039794921875
